<svg width="111" height="97" viewBox="0 0 111 97" fill="none" xmlns="http://www.w3.org/2000/svg">
<path d="M39.066 2.25762C41.434 0.964901 44.0491 0.101608 46.727 0C47.3766 0.0200248 48.0325 0.0711993 48.6596 0.264031C49.9728 0.655628 51.1529 1.42844 52.2118 2.31992C53.9273 3.80695 55.3772 5.61882 56.5615 7.59461C57.1202 8.56618 57.693 9.5563 57.9508 10.6718C58.1742 11.6938 58.1868 12.7543 58.0882 13.7942C57.9586 15.4599 57.5979 17.1005 57.5556 18.7737C57.4901 19.1171 57.5725 19.4619 57.5795 19.8068C57.6422 20.7954 57.9959 21.7982 58.7033 22.4768C59.4874 23.1858 60.4512 23.6204 61.4065 24.0076C63.8435 24.9695 66.3974 25.6355 68.7131 26.9134C70.0278 27.6306 71.2537 28.571 72.1843 29.7933C72.9826 30.813 73.4997 32.0405 73.8604 33.2976C74.3677 35.0843 74.6058 36.9406 74.772 38.7933C75.0905 42.4705 75.0926 46.1662 75.4216 49.8426C75.5956 51.5551 75.8112 53.2831 76.3671 54.9126C77.2935 57.3764 78.773 59.608 80.6548 61.3695C82.5606 63.1865 84.7897 64.5608 86.9906 65.9366C86.5912 66.6442 86.2058 67.3606 85.7873 68.0555C84.7467 67.3651 83.666 66.7421 82.6423 66.0241C80.4294 64.5126 78.3433 62.7356 76.7327 60.5195C75.7823 59.235 75.0081 57.8117 74.3888 56.3217C73.8886 55.1173 73.6145 53.826 73.394 52.537C72.879 49.1425 72.8374 45.6982 72.655 42.2739C72.5408 40.0912 72.407 37.9018 72.0237 35.7503C71.7729 34.4301 71.4404 33.0996 70.7753 31.9374C70.1701 30.8917 69.2549 30.0892 68.2665 29.4662C67.0089 28.6682 65.621 28.1401 64.2401 27.6343C62.8656 27.1255 61.4608 26.7028 60.113 26.1168C59.1957 25.7253 58.2953 25.2632 57.5126 24.6194C55.9274 23.3809 55.1694 21.2456 55.2215 19.2112C55.1679 16.9907 55.7626 14.8236 55.8119 12.609C55.8055 11.8933 55.7344 11.1516 55.4237 10.5041C54.4606 8.42749 53.115 6.55777 51.5389 4.95504C50.5589 4.0109 49.4712 3.13278 48.196 2.68778C47.0899 2.30434 45.9077 2.50088 44.7875 2.70039C43.4355 3.00076 42.1068 3.43908 40.8619 4.0732C39.7368 4.61758 38.6602 5.30658 37.7732 6.22476C37.3202 6.7239 36.9137 7.31574 36.7996 8.01068C36.596 9.1736 36.7742 10.361 36.98 11.5098C37.2744 13.0095 37.7218 14.4728 38.2495 15.8997C38.83 17.4743 39.5162 19.0065 40.3109 20.4743C40.8069 21.3658 41.3325 22.2483 41.98 23.0293C43.7082 25.0058 45.9077 26.461 48.2073 27.589C49.2654 28.0778 50.3575 28.5272 51.5087 28.6941C51.906 28.7616 52.3597 28.6533 52.5936 28.2803C53.0924 27.549 53.2756 26.6457 53.4546 25.7816C53.63 24.8301 53.7554 23.8696 53.8561 22.9069C54.6283 23.0174 55.4026 23.1183 56.1754 23.2288C56.0458 24.4489 55.8887 25.6696 55.6245 26.8667C55.3694 27.9576 55.02 29.0687 54.3155 29.9364C53.7166 30.6922 52.8036 31.1446 51.8708 31.1713C50.9732 31.1787 50.0954 30.9325 49.2436 30.6573C47.0363 29.8704 44.9573 28.7097 43.0614 27.2879C42.1885 26.6138 41.3424 25.8936 40.5935 25.0696C39.6431 24.032 38.897 22.8127 38.2157 21.569C36.8686 19.0666 35.8097 16.3914 35.0573 13.6258C34.7677 12.4933 34.531 11.3415 34.4232 10.1726C34.3746 9.67719 34.4021 9.1788 34.3936 8.68188C34.388 7.44702 34.7854 6.21957 35.5061 5.24503C36.4389 3.96121 37.7296 3.02301 39.066 2.25762Z" fill="#E27D60"/>
<path d="M57.6724 29.9308C58.2924 29.7372 58.9335 29.6297 59.5747 29.5459C59.6923 30.3573 59.8071 31.1694 59.9149 31.983C58.9786 32.1098 57.9951 32.2589 57.2018 32.8411C56.3825 33.4196 55.835 34.3155 55.3687 35.21C54.8177 36.278 54.5718 37.478 54.3654 38.6624C53.8321 41.9576 53.5496 45.3099 52.671 48.5332C52.2067 50.2701 51.5769 51.9648 50.7181 53.529C49.4344 55.7896 47.8408 57.8358 46.1662 59.7849C45.6582 60.3619 45.1552 60.9434 44.6176 61.49C44.2146 61.9587 43.7954 62.4119 43.3523 62.8383C39.8529 66.4472 36.1077 69.7817 32.3673 73.1088C31.865 72.4814 31.343 71.871 30.8582 71.228C32.8232 69.5066 34.7592 67.7481 36.6833 65.9755C38.2917 64.4796 39.891 62.9711 41.4219 61.3884C41.7023 61.0643 42.0369 60.7995 42.318 60.4769C42.7633 59.931 43.2889 59.4652 43.7412 58.9261C44.7839 57.7698 45.7808 56.5668 46.7115 55.3082C47.4752 54.2655 48.2191 53.199 48.83 52.0472C50.3257 49.1999 50.9499 45.9626 51.4036 42.7757C51.6988 40.8318 51.8953 38.8686 52.3103 36.9469C52.5055 36.0985 52.7358 35.2508 53.1142 34.4698C53.6151 33.3788 54.2435 32.3346 55.084 31.4972C55.8097 30.7659 56.7044 30.2171 57.6724 29.9308Z" fill="#E27D60"/>
<path d="M46.5579 35.8665C47.4111 34.9046 48.4122 34.1066 49.3922 33.2944C49.7656 33.8462 50.1947 34.3558 50.5554 34.9172C49.6867 35.6158 48.8216 36.3278 48.0564 37.1533C47.4696 37.754 46.9722 38.4438 46.5114 39.1543C45.8661 40.2126 45.3088 41.3377 44.9199 42.5296C44.2739 44.5773 43.8744 46.6985 43.4355 48.8026C43.0388 50.7227 42.6408 52.6459 42.0905 54.5252C41.8073 55.4523 41.4903 56.372 41.0633 57.2382C40.3595 58.6288 39.4098 59.8622 38.389 61.0081C37.0243 62.53 35.5371 63.9324 33.9413 65.1821C33.5707 64.6348 33.2009 64.0875 32.819 63.5497C34.9868 61.7698 37.08 59.8251 38.6771 57.4503C39.8015 55.8105 40.2989 53.8251 40.7829 51.899C41.324 49.5694 41.7643 47.2154 42.2892 44.8821C42.5908 43.5672 42.9177 42.253 43.4038 40.9981C44.1625 39.115 45.1982 37.3365 46.5579 35.8665Z" fill="#E27D60"/>
<path d="M60.6434 49.2202C60.8865 48.0165 60.9865 46.7883 61.1464 45.5728C61.7876 45.6499 62.4301 45.7189 63.0698 45.8123C62.869 47.4076 62.7168 49.0163 62.3441 50.5819C61.9587 52.201 61.3972 53.7859 60.573 55.2166C59.2576 57.5788 57.3575 59.4997 55.3891 61.2567C51.8841 64.3212 48.0564 66.9363 44.278 69.6055C43.9173 69.0389 43.565 68.4663 43.1973 67.9049C45.5631 66.2614 47.9253 64.6119 50.2291 62.8727C52.4491 61.1892 54.6303 59.427 56.56 57.3785C57.3843 56.4544 58.1705 55.4799 58.7933 54.3904C59.717 52.8128 60.3228 51.0388 60.6434 49.2202Z" fill="#E27D60"/>
<path d="M53.4826 63.1454C54.0941 62.7174 54.707 62.291 55.3052 61.8438C56.059 63.0497 56.8481 64.2334 57.5202 65.4935C58.205 66.801 58.8327 68.202 58.9138 69.7172C59.0215 71.2347 58.5749 72.7106 58.1035 74.1242C57.4103 73.8661 56.7142 73.6184 56.0203 73.364C56.3035 72.514 56.5888 71.6544 56.6945 70.7563C56.8058 69.8507 56.6346 68.9274 56.2901 68.0959C55.568 66.3219 54.4915 64.7459 53.4826 63.1454Z" fill="#E27D60"/>
<path d="M38.5714 70.1884C40.4264 69.8168 42.354 69.8495 44.1963 70.2841C45.5595 70.5911 46.8777 71.0843 48.1804 71.5998C49.7592 72.228 51.3113 72.9288 52.8507 73.6586C55.3926 74.8342 57.9113 76.0661 60.4666 77.2097C62.9944 78.3252 65.5596 79.382 68.2248 80.077C69.7677 80.4611 71.3606 80.7244 72.9472 80.5642C75.6301 80.3321 78.1523 79.2144 80.5258 77.9395C82.0264 77.1318 83.4925 76.2559 84.9875 75.4371C86.0641 74.8327 87.1638 74.269 88.3045 73.8114C89.8262 73.1951 91.4452 72.7627 93.0868 72.8154C96.2966 72.8636 99.4303 73.8915 102.289 75.3837C105.366 76.9924 108.192 79.0653 111 81.1338C110.548 81.8035 110.124 82.494 109.658 83.1526C107.304 81.4119 104.935 79.6794 102.41 78.2206C99.8298 76.7454 97.0222 75.5847 94.0724 75.3348C93.1551 75.2562 92.2237 75.2332 91.3177 75.4297C90.0489 75.6974 88.8335 76.1914 87.6668 76.7736C84.9911 78.1153 82.4689 79.7796 79.7628 81.0567C78.3629 81.7301 76.9038 82.2745 75.406 82.6498C74.314 82.8819 73.2051 83.0799 72.0877 83.0577C70.5194 83.097 68.9596 82.8085 67.4435 82.408C64.5486 81.6404 61.7728 80.4641 59.0293 79.2426C56.4487 78.0708 53.8955 76.8337 51.3261 75.6337C49.793 74.9276 48.2508 74.2401 46.6797 73.6319C45.1685 73.0794 43.6277 72.5402 42.0214 72.4238C40.3482 72.3081 38.6348 72.5276 37.0855 73.224C35.3186 73.9916 33.7883 75.3207 32.6886 76.9613C32.418 77.384 32.1433 77.8127 31.97 78.2918C31.7628 79.1403 32.0834 80.008 32.4272 80.7667C33.3114 82.5 34.6986 83.9136 36.2774 84.946C37.578 85.6684 39.0004 86.0992 40.4074 86.5279C43.5573 87.4291 46.7558 88.1314 49.9699 88.724C49.8064 89.5317 49.65 90.3416 49.483 91.1485C46.4317 90.5514 43.3819 89.9181 40.382 89.0696C38.9448 88.6632 37.5104 88.2197 36.1393 87.6048C34.8029 87.0234 33.6489 86.0674 32.6048 85.0298C31.6283 83.9989 30.7638 82.8322 30.1741 81.5099C29.5971 80.1927 29.3259 78.6218 29.8522 77.2379C30.1079 76.6409 30.4102 76.0587 30.7955 75.5439C30.0156 75.9481 29.1244 76.0015 28.2698 76.003C27.492 75.9637 26.7121 75.9066 25.9456 75.7538C24.3026 75.4045 22.7041 74.8653 21.0949 74.3788C19.4231 73.8663 17.7449 73.3635 16.0343 73.0141C15.0283 72.8102 14.0067 72.6515 12.9795 72.6804C12.1144 72.6537 11.2682 72.9058 10.4637 73.2188C8.59386 73.9724 6.95443 75.2465 5.50875 76.6854C4.55553 77.6762 3.65585 78.7524 3.02107 80.0028C2.23059 81.656 2.18128 83.6169 2.60258 85.3895C2.83014 86.2832 3.1965 87.1583 3.789 87.851C4.44139 88.563 5.26287 89.0733 6.10266 89.5005C7.68784 90.2659 9.40829 90.7146 11.1456 90.8526C12.9232 91.0172 14.7021 90.7242 16.4373 90.3378C19.2935 89.6726 22.1207 88.7907 24.7733 87.478C25.4397 87.1161 26.1126 86.7438 26.6832 86.2246C27.0411 85.9101 27.2609 85.4281 27.2609 84.9371C27.2003 84.1798 26.8798 83.4812 26.5163 82.8374C25.6849 81.4134 24.6443 80.1445 23.6207 78.8725C24.211 78.3318 24.8141 77.8067 25.4165 77.2802C26.3648 78.4994 27.3525 79.6913 28.1832 81.0063C28.7883 82.003 29.3548 83.0688 29.533 84.2525C29.6584 85.1588 29.5577 86.1274 29.1061 86.9247C28.5305 88.0053 27.5125 88.7099 26.5078 89.2965C25.2178 90.0345 23.8496 90.6137 22.4624 91.1158C20.7201 91.7492 18.944 92.2832 17.1433 92.6978C15.1798 93.1421 13.1676 93.4906 11.1555 93.3208C9.35615 93.1947 7.57089 92.7883 5.89482 92.0837C4.74645 91.5942 3.63612 90.9712 2.68501 90.1265C1.69022 89.2565 0.992745 88.0602 0.567212 86.7853C-0.219037 84.3816 -0.214105 81.6589 0.746866 79.3108C1.49789 77.5976 2.69347 76.1528 3.96443 74.8445C5.12126 73.6831 6.40349 72.6566 7.79422 71.826C8.82353 71.2186 9.92471 70.7365 11.0745 70.4517C12.2975 70.1246 13.577 70.1684 14.8204 70.3174C18.267 70.7832 21.5578 72.0092 24.8973 72.9622C26.2161 73.3649 27.5914 73.5859 28.9666 73.5199C29.2146 73.494 29.4668 73.468 29.7028 73.3775C29.8902 73.3071 29.9938 73.1157 30.1157 72.9644C30.668 73.3909 31.1999 73.8463 31.7389 74.2913C33.5122 72.1939 35.9484 70.7187 38.5714 70.1884Z" fill="#E27D60"/>
<path d="M10.9625 74.7868C11.7586 74.4797 12.6364 74.542 13.448 74.7423C13.3466 75.317 13.2451 75.8918 13.1282 76.4637C12.4807 76.2745 11.7487 76.2271 11.1513 76.6046C10.0515 77.2891 9.14689 78.2637 8.33105 79.2872C7.06995 80.8676 5.91947 82.5423 4.7732 84.2162C4.3216 83.8736 3.86859 83.5317 3.42474 83.1786C4.19056 82.1047 4.92609 81.0078 5.70811 79.9457C6.67401 78.6271 7.66528 77.3121 8.85804 76.21C9.49634 75.6434 10.1713 75.0931 10.9625 74.7868Z" fill="#E27D60"/>
<path d="M46.8777 79.3999C49.5782 80.6281 52.2694 81.8785 54.9396 83.1794C57.5675 84.4773 60.1946 85.8027 62.6471 87.4477C63.582 88.1203 64.5324 88.8145 65.2376 89.7624C65.6329 90.283 65.921 90.9201 65.9302 91.5965C65.9379 92.3894 65.5152 93.151 64.8938 93.5849C64.4718 93.8749 63.9948 94.0588 63.5186 94.2242C61.8672 94.7538 60.1496 95.0067 58.4439 95.2581C55.0206 95.729 51.5769 96.0138 48.1339 96.2734C44.6606 96.5152 41.1838 96.708 37.7076 96.8593C36.3606 96.9105 35.0156 96.9847 33.6679 96.9995C33.9694 96.378 34.2576 95.7498 34.5633 95.1305C33.9673 95.5955 33.3783 96.0695 32.7816 96.533C32.3793 96.019 32.4871 95.181 33.0021 94.7983C33.4178 94.4645 33.9779 94.5416 34.4682 94.5261C41.2366 94.2605 48.0113 93.9209 54.7571 93.2267C56.5128 93.0346 58.2685 92.8262 60.0108 92.5243C60.9421 92.3508 61.8771 92.1765 62.7838 91.8865C63.0571 91.7938 63.334 91.7003 63.5834 91.5461C63.2178 90.9372 62.6689 90.49 62.1286 90.0642C61.0732 89.2647 59.9481 88.5742 58.8018 87.9305C56.3007 86.5287 53.725 85.2827 51.1408 84.062C49.4098 83.2543 47.6823 82.4407 45.9428 81.6553C46.25 80.901 46.5684 80.1527 46.8777 79.3999Z" fill="#E27D60"/>
<path d="M5.10011 84.4839C6.11532 85.1091 7.18409 85.6906 8.01895 86.5791C8.57271 87.1739 8.88622 87.9667 9.0539 88.7699C8.52057 88.9272 7.98443 89.0703 7.4504 89.2231C7.33627 88.7403 7.22284 88.2256 6.88255 87.857C6.14985 87.0404 5.15647 86.5739 4.26947 85.9776C4.55621 85.4859 4.82111 84.9801 5.10011 84.4839Z" fill="#E27D60"/>
</svg>
