<svg width="111" height="97" viewBox="0 0 111 97" fill="none" xmlns="http://www.w3.org/2000/svg">
<path d="M39.066 2.25762C41.4339 0.964901 44.0491 0.101608 46.727 0C47.3766 0.0200248 48.0325 0.0711993 48.6595 0.264031C49.9727 0.655628 51.1528 1.42844 52.2117 2.31992C53.9272 3.80695 55.3771 5.61882 56.5614 7.59461C57.1201 8.56618 57.6929 9.5563 57.9508 10.6718C58.1741 11.6938 58.1868 12.7543 58.0882 13.7942C57.9585 15.4599 57.5978 17.1005 57.5555 18.7737C57.49 19.1171 57.5724 19.4619 57.5795 19.8068C57.6422 20.7954 57.9959 21.7982 58.7032 22.4768C59.4873 23.1858 60.4511 23.6204 61.4065 24.0076C63.8434 24.9695 66.3973 25.6355 68.7131 26.9134C70.0277 27.6306 71.2536 28.571 72.1843 29.7933C72.9825 30.813 73.4996 32.0405 73.8603 33.2976C74.3676 35.0843 74.6057 36.9406 74.772 38.7933C75.0904 42.4705 75.0925 46.1662 75.4216 49.8426C75.5956 51.5551 75.8112 53.2831 76.367 54.9126C77.2935 57.3764 78.773 59.608 80.6548 61.3695C82.5605 63.1865 84.7896 64.5608 86.9906 65.9366C86.5911 66.6442 86.2057 67.3606 85.7872 68.0555C84.7466 67.3651 83.6659 66.7421 82.6422 66.0241C80.4293 64.5126 78.3432 62.7356 76.7327 60.5195C75.7823 59.235 75.008 57.8117 74.3887 56.3217C73.8885 55.1173 73.6145 53.826 73.3939 52.537C72.8789 49.1425 72.8374 45.6982 72.6549 42.2739C72.5408 40.0912 72.4069 37.9018 72.0236 35.7503C71.7728 34.4301 71.4403 33.0996 70.7752 31.9374C70.17 30.8917 69.2548 30.0892 68.2664 29.4662C67.0088 28.6682 65.6209 28.1401 64.24 27.6343C62.8655 27.1255 61.4607 26.7028 60.1129 26.1168C59.1957 25.7253 58.2953 25.2632 57.5125 24.6194C55.9274 23.3809 55.1693 21.2456 55.2214 19.2112C55.1679 16.9907 55.7625 14.8236 55.8118 12.609C55.8055 11.8933 55.7343 11.1516 55.4236 10.5041C54.4605 8.42749 53.1149 6.55777 51.5389 4.95504C50.5589 4.0109 49.4711 3.13278 48.1959 2.68778C47.0898 2.30434 45.9076 2.50088 44.7874 2.70039C43.4354 3.00076 42.1067 3.43908 40.8618 4.0732C39.7367 4.61758 38.6602 5.30658 37.7732 6.22476C37.3202 6.7239 36.9137 7.31574 36.7995 8.01068C36.5959 9.1736 36.7742 10.361 36.9799 11.5098C37.2744 13.0095 37.7218 14.4728 38.2494 15.8997C38.83 17.4743 39.5162 19.0065 40.3109 20.4743C40.8069 21.3658 41.3324 22.2483 41.9799 23.0293C43.7081 25.0058 45.9076 26.461 48.2072 27.589C49.2654 28.0778 50.3574 28.5272 51.5086 28.6941C51.9059 28.7616 52.3597 28.6533 52.5936 28.2803C53.0924 27.549 53.2755 26.6457 53.4545 25.7816C53.6299 24.8301 53.7553 23.8696 53.8561 22.9069C54.6282 23.0174 55.4025 23.1183 56.1754 23.2288C56.0457 24.4489 55.8886 25.6696 55.6244 26.8667C55.3694 27.9576 55.0199 29.0687 54.3154 29.9364C53.7166 30.6922 52.8035 31.1446 51.8707 31.1713C50.9732 31.1787 50.0953 30.9325 49.2435 30.6573C47.0363 29.8704 44.9572 28.7097 43.0613 27.2879C42.1884 26.6138 41.3423 25.8936 40.5934 25.0696C39.643 24.032 38.8969 22.8127 38.2156 21.569C36.8686 19.0666 35.8097 16.3914 35.0572 13.6258C34.7677 12.4933 34.531 11.3415 34.4232 10.1726C34.3746 9.67719 34.402 9.1788 34.3936 8.68188C34.3879 7.44702 34.7853 6.21957 35.506 5.24503C36.4388 3.96121 37.7295 3.02301 39.066 2.25762Z" fill="#E27D60"/>
<path d="M57.6725 29.9308C58.2924 29.7372 58.9336 29.6297 59.5747 29.5459C59.6923 30.3573 59.8072 31.1694 59.915 31.983C58.9787 32.1098 57.9951 32.2589 57.2019 32.8411C56.3825 33.4196 55.8351 34.3155 55.3687 35.21C54.8177 36.278 54.5719 37.478 54.3654 38.6624C53.8321 41.9576 53.5496 45.3099 52.6711 48.5332C52.2068 50.2701 51.5769 51.9648 50.7181 53.529C49.4345 55.7896 47.8408 57.8358 46.1662 59.7849C45.6582 60.3619 45.1552 60.9434 44.6176 61.49C44.2147 61.9587 43.7955 62.4119 43.3523 62.8383C39.8529 66.4472 36.1077 69.7817 32.3674 73.1088C31.865 72.4814 31.343 71.871 30.8583 71.228C32.8232 69.5066 34.7592 67.7481 36.6833 65.9755C38.2917 64.4796 39.891 62.9711 41.4219 61.3884C41.7023 61.0643 42.037 60.7995 42.3181 60.4769C42.7633 59.931 43.2889 59.4652 43.7412 58.9261C44.7839 57.7698 45.7808 56.5668 46.7115 55.3082C47.4752 54.2655 48.2192 53.199 48.83 52.0472C50.3257 49.1999 50.9499 45.9626 51.4036 42.7757C51.6988 40.8318 51.8954 38.8686 52.3103 36.9469C52.5055 36.0985 52.7359 35.2508 53.1142 34.4698C53.6151 33.3788 54.2435 32.3346 55.084 31.4972C55.8097 30.7659 56.7045 30.2171 57.6725 29.9308Z" fill="#E27D60"/>
<path d="M46.5579 35.8665C47.4111 34.9046 48.4122 34.1066 49.3922 33.2944C49.7656 33.8462 50.1947 34.3558 50.5554 34.9172C49.6867 35.6158 48.8215 36.3278 48.0564 37.1533C47.4695 37.754 46.9722 38.4438 46.5114 39.1543C45.8661 40.2126 45.3088 41.3377 44.9199 42.5296C44.2738 44.5773 43.8744 46.6985 43.4354 48.8026C43.0388 50.7227 42.6407 52.6459 42.0905 54.5252C41.8073 55.4523 41.4903 56.372 41.0633 57.2382C40.3595 58.6288 39.4098 59.8622 38.3889 61.0081C37.0243 62.53 35.537 63.9324 33.9413 65.1821C33.5707 64.6348 33.2008 64.0875 32.819 63.5497C34.9868 61.7698 37.0799 59.8251 38.6771 57.4503C39.8015 55.8105 40.2989 53.8251 40.7829 51.899C41.324 49.5694 41.7643 47.2154 42.2892 44.8821C42.5907 43.5672 42.9176 42.253 43.4037 40.9981C44.1625 39.115 45.1982 37.3365 46.5579 35.8665Z" fill="#E27D60"/>
<path d="M60.6434 49.2202C60.8865 48.0165 60.9865 46.7883 61.1464 45.5728C61.7876 45.6499 62.4301 45.7189 63.0698 45.8123C62.869 47.4076 62.7168 49.0163 62.3441 50.5819C61.9587 52.201 61.3972 53.7859 60.573 55.2166C59.2576 57.5788 57.3575 59.4997 55.3891 61.2567C51.8841 64.3212 48.0564 66.9363 44.278 69.6055C43.9173 69.0389 43.565 68.4663 43.1973 67.9049C45.5631 66.2614 47.9253 64.6119 50.2291 62.8727C52.4491 61.1892 54.6303 59.427 56.56 57.3785C57.3843 56.4544 58.1705 55.4799 58.7933 54.3904C59.717 52.8128 60.3228 51.0388 60.6434 49.2202Z" fill="#E27D60"/>
<path d="M53.4825 63.1454C54.0941 62.7174 54.707 62.291 55.3051 61.8438C56.059 63.0497 56.8481 64.2334 57.5202 65.4935C58.205 66.801 58.8327 68.202 58.9137 69.7172C59.0215 71.2347 58.5749 72.7106 58.1035 74.1242C57.4103 73.8661 56.7142 73.6184 56.0202 73.364C56.3035 72.514 56.5888 71.6544 56.6945 70.7563C56.8058 69.8507 56.6346 68.9274 56.2901 68.0959C55.5679 66.3219 54.4914 64.7459 53.4825 63.1454Z" fill="#E27D60"/>
<path d="M38.5714 70.1885C40.4264 69.817 42.354 69.8496 44.1963 70.2842C45.5595 70.5912 46.8777 71.0845 48.1804 71.5999C49.7592 72.2281 51.3113 72.929 52.8507 73.6588C55.3926 74.8343 57.9113 76.0662 60.4666 77.2098C62.9944 78.3253 65.5596 79.3822 68.2248 80.0771C69.7677 80.4613 71.3606 80.7246 72.9472 80.5643C75.6301 80.3322 78.1523 79.2145 80.5258 77.9396C82.0264 77.132 83.4925 76.256 84.9875 75.4372C86.0641 74.8328 87.1638 74.2691 88.3045 73.8115C89.8262 73.1952 91.4452 72.7628 93.0868 72.8155C96.2966 72.8637 99.4303 73.8916 102.289 75.3838C105.366 76.9925 108.192 79.0655 111 81.1339C110.548 81.8037 110.124 82.4942 109.658 83.1527C107.304 81.4121 104.935 79.6795 102.41 78.2207C99.8298 76.7455 97.0222 75.5848 94.0724 75.3349C93.1551 75.2563 92.2237 75.2333 91.3177 75.4298C90.0489 75.6976 88.8335 76.1915 87.6668 76.7737C84.9911 78.1154 82.4689 79.7797 79.7628 81.0568C78.3629 81.7302 76.9038 82.2746 75.406 82.6499C74.314 82.882 73.2051 83.0801 72.0877 83.0578C70.5194 83.0971 68.9596 82.8086 67.4435 82.4081C64.5486 81.6405 61.7728 80.4642 59.0293 79.2427C56.4487 78.0709 53.8955 76.8338 51.3261 75.6338C49.793 74.9277 48.2508 74.2402 46.6797 73.6321C45.1685 73.0795 43.6277 72.5403 42.0214 72.4239C40.3482 72.3082 38.6348 72.5277 37.0855 73.2241C35.3186 73.9918 33.7883 75.3208 32.6886 76.9614C32.418 77.3841 32.1433 77.8128 31.97 78.2919C31.7628 79.1404 32.0834 80.0081 32.4272 80.7668C33.3114 82.5001 34.6986 83.9137 36.2774 84.9461C37.578 85.6685 39.0004 86.0994 40.4074 86.5281C43.5573 87.4292 46.7558 88.1315 49.9699 88.7241C49.8064 89.5318 49.65 90.3417 49.483 91.1486C46.4317 90.5516 43.3819 89.9182 40.382 89.0697C38.9448 88.6633 37.5104 88.2198 36.1393 87.605C34.8029 87.0235 33.6489 86.0675 32.6048 85.0299C31.6283 83.999 30.7638 82.8324 30.1741 81.51C29.5971 80.1928 29.3259 78.622 29.8522 77.238C30.1079 76.641 30.4102 76.0588 30.7955 75.5441C30.0156 75.9483 29.1244 76.0017 28.2698 76.0031C27.492 75.9638 26.7121 75.9067 25.9456 75.7539C24.3026 75.4046 22.7041 74.8654 21.0949 74.3789C19.4231 73.8664 17.7449 73.3636 16.0343 73.0143C15.0283 72.8103 14.0067 72.6516 12.9795 72.6805C12.1144 72.6538 11.2682 72.906 10.4637 73.219C8.59386 73.9725 6.95443 75.2467 5.50875 76.6855C4.55553 77.6763 3.65585 78.7525 3.02107 80.0029C2.23059 81.6561 2.18128 83.617 2.60258 85.3896C2.83014 86.2833 3.1965 87.1585 3.789 87.8512C4.44139 88.5632 5.26287 89.0734 6.10266 89.5006C7.68784 90.266 9.40829 90.7147 11.1456 90.8527C12.9232 91.0173 14.7021 90.7244 16.4373 90.338C19.2935 89.6727 22.1207 88.7909 24.7733 87.4781C25.4397 87.1162 26.1126 86.7439 26.6832 86.2247C27.0411 85.9103 27.2609 85.4282 27.2609 84.9372C27.2003 84.18 26.8798 83.4813 26.5163 82.8375C25.6849 81.4136 24.6443 80.1446 23.6207 78.8726C24.211 78.332 24.8141 77.8069 25.4165 77.2803C26.3648 78.4996 27.3525 79.6914 28.1832 81.0064C28.7883 82.0032 29.3548 83.0689 29.533 84.2526C29.6584 85.1589 29.5577 86.1275 29.1061 86.9248C28.5305 88.0054 27.5125 88.71 26.5078 89.2967C25.2178 90.0346 23.8496 90.6138 22.4624 91.1159C20.7201 91.7493 18.944 92.2833 17.1433 92.6979C15.1798 93.1422 13.1676 93.4908 11.1555 93.3209C9.35615 93.1948 7.57089 92.7884 5.89482 92.0838C4.74645 91.5943 3.63612 90.9713 2.68501 90.1266C1.69022 89.2566 0.992745 88.0603 0.567212 86.7854C-0.219037 84.3817 -0.214105 81.659 0.746866 79.3109C1.49789 77.5977 2.69347 76.153 3.96443 74.8447C5.12126 73.6832 6.40349 72.6568 7.79422 71.8261C8.82353 71.2187 9.92471 70.7366 11.0745 70.4518C12.2975 70.1247 13.577 70.1685 14.8204 70.3176C18.267 70.7833 21.5578 72.0093 24.8973 72.9623C26.2161 73.3651 27.5914 73.5861 28.9666 73.5201C29.2146 73.4941 29.4668 73.4681 29.7028 73.3777C29.8902 73.3072 29.9938 73.1159 30.1157 72.9646C30.668 73.391 31.1999 73.8464 31.7389 74.2914C33.5122 72.194 35.9484 70.7188 38.5714 70.1885Z" fill="#E27D60"/>
<path d="M10.9624 74.7868C11.7585 74.4797 12.6363 74.542 13.448 74.7423C13.3465 75.317 13.245 75.8918 13.1281 76.4637C12.4806 76.2745 11.7486 76.2271 11.1512 76.6046C10.0514 77.2891 9.14683 78.2637 8.33099 79.2872C7.06989 80.8676 5.9194 82.5423 4.77314 84.2162C4.32154 83.8736 3.86853 83.5317 3.42468 83.1786C4.1905 82.1047 4.92602 81.0078 5.70805 79.9457C6.67395 78.6271 7.66522 77.3121 8.85798 76.21C9.49627 75.6434 10.1712 75.0931 10.9624 74.7868Z" fill="#E27D60"/>
<path d="M46.8778 79.3999C49.5782 80.6281 52.2695 81.8785 54.9397 83.1794C57.5675 84.4773 60.1947 85.8027 62.6471 87.4477C63.582 88.1203 64.5325 88.8145 65.2377 89.7624C65.6329 90.283 65.9211 90.9201 65.9302 91.5965C65.938 92.3894 65.5153 93.151 64.8939 93.5849C64.4719 93.8749 63.9949 94.0588 63.5186 94.2242C61.8672 94.7538 60.1496 95.0067 58.444 95.2581C55.0207 95.729 51.577 96.0138 48.1339 96.2734C44.6606 96.5152 41.1838 96.708 37.7077 96.8593C36.3606 96.9105 35.0157 96.9847 33.6679 96.9995C33.9695 96.378 34.2576 95.7498 34.5634 95.1305C33.9674 95.5955 33.3784 96.0695 32.7817 96.533C32.3794 96.019 32.4872 95.181 33.0022 94.7983C33.4178 94.4645 33.9779 94.5416 34.4683 94.5261C41.2367 94.2605 48.0114 93.9209 54.7572 93.2267C56.5129 93.0346 58.2685 92.8262 60.0108 92.5243C60.9422 92.3508 61.8771 92.1765 62.7838 91.8865C63.0572 91.7938 63.3341 91.7003 63.5835 91.5461C63.2178 90.9372 62.669 90.49 62.1286 90.0642C61.0732 89.2647 59.9481 88.5742 58.8019 87.9305C56.3008 86.5287 53.7251 85.2827 51.1409 84.062C49.4098 83.2543 47.6824 82.4407 45.9429 81.6553C46.25 80.901 46.5685 80.1527 46.8778 79.3999Z" fill="#E27D60"/>
<path d="M5.10017 84.4839C6.11539 85.1091 7.18415 85.6906 8.01901 86.5791C8.57277 87.1739 8.88628 87.9667 9.05396 88.7699C8.52063 88.9272 7.98449 89.0703 7.45046 89.2231C7.33633 88.7403 7.2229 88.2256 6.88261 87.857C6.14991 87.0404 5.15653 86.5739 4.26953 85.9776C4.55627 85.4859 4.82117 84.9801 5.10017 84.4839Z" fill="#E27D60"/>
</svg>
