<svg width="24" height="24" viewBox="0 0 24 24" fill="none" xmlns="http://www.w3.org/2000/svg">
<g clip-path="url(#clip0_23_611)">
<path d="M4.28571 2H18.4286C19.1106 2 19.7646 2.25754 20.2468 2.71596C20.7291 3.17438 21 3.79614 21 4.44444V19.1111C21 19.7594 20.7291 20.3812 20.2468 20.8396C19.7646 21.298 19.1106 21.5556 18.4286 21.5556H4.28571C3.94472 21.5556 3.6177 21.4268 3.37658 21.1976C3.13546 20.9684 3 20.6575 3 20.3333V3.22222C3 2.89807 3.13546 2.58719 3.37658 2.35798C3.6177 2.12877 3.94472 2 4.28571 2M8.14286 2V24M13.2857 6.88889H15.8571M13.2857 11.7778H15.8571" stroke="#303030" stroke-width="2" stroke-linecap="round" stroke-linejoin="round"/>
</g>
<defs>
<clipPath id="clip0_23_611">
<rect width="24" height="24" fill="white"/>
</clipPath>
</defs>
</svg>
