<svg width="17" height="12" viewBox="0 0 17 12" fill="none" xmlns="http://www.w3.org/2000/svg">
<path d="M15.2999 0.5H2.4999C1.6199 0.5 0.907902 1.11875 0.907902 1.875L0.899902 10.125C0.899902 10.8813 1.6199 11.5 2.4999 11.5H15.2999C16.1799 11.5 16.8999 10.8813 16.8999 10.125V1.875C16.8999 1.11875 16.1799 0.5 15.2999 0.5ZM14.9799 3.42188L9.3239 6.46063C9.0679 6.59812 8.7319 6.59812 8.4759 6.46063L2.8199 3.42188C2.73968 3.38318 2.66944 3.33089 2.61341 3.26819C2.55739 3.20548 2.51675 3.13366 2.49396 3.05707C2.47117 2.98048 2.4667 2.90071 2.48083 2.82259C2.49495 2.74447 2.52737 2.66962 2.57613 2.60258C2.62488 2.53554 2.68896 2.4777 2.76448 2.43256C2.84 2.38742 2.9254 2.35591 3.0155 2.33996C3.1056 2.324 3.19853 2.32391 3.28867 2.33971C3.3788 2.35551 3.46427 2.38687 3.5399 2.43187L8.8999 5.3125L14.2599 2.43187C14.3355 2.38687 14.421 2.35551 14.5111 2.33971C14.6013 2.32391 14.6942 2.324 14.7843 2.33996C14.8744 2.35591 14.9598 2.38742 15.0353 2.43256C15.1108 2.4777 15.1749 2.53554 15.2237 2.60258C15.2724 2.66962 15.3049 2.74447 15.319 2.82259C15.3331 2.90071 15.3286 2.98048 15.3058 3.05707C15.2831 3.13366 15.2424 3.20548 15.1864 3.26819C15.1304 3.33089 15.0601 3.38318 14.9799 3.42188Z" fill="#E27D60"/>
</svg>
