<svg width="100" height="42" viewBox="0 0 100 42" fill="none" xmlns="http://www.w3.org/2000/svg">
<rect x="1" y="1" width="98" height="40" rx="2" fill="white" stroke="#E6E6E6" stroke-width="2"/>
<path d="M54.0521 25.42C54.2921 25.42 54.4121 25.52 54.4121 25.72V27.66C54.4121 27.74 54.3788 27.82 54.3121 27.9C54.2588 27.9667 54.1588 28 54.0121 28H46.1121C45.8588 28 45.7321 27.8867 45.7321 27.66V25.72C45.7321 25.52 45.8454 25.42 46.0721 25.42H48.1521C48.2988 25.42 48.3721 25.3733 48.3721 25.28V16.88C48.3721 16.68 48.2788 16.6067 48.0921 16.66L46.1521 17.24C45.8588 17.3067 45.7121 17.18 45.7121 16.86V15.54C45.7121 15.3933 45.7321 15.2933 45.7721 15.24C45.8121 15.1867 45.8921 15.1267 46.0121 15.06L49.3521 13.4C49.5388 13.3067 49.6854 13.2467 49.7921 13.22C49.8988 13.18 50.0321 13.16 50.1921 13.16H51.5721C51.7721 13.16 51.8721 13.28 51.8721 13.52V25.22C51.8721 25.3533 51.9321 25.42 52.0521 25.42H54.0521Z" fill="#303030"/>
<path d="M78 27.4286L84.25 21L78 14.5714L79.25 12L88 21L79.25 30L78 27.4286Z" fill="#303030"/>
<path d="M22 14.5714L15.75 21L22 27.4286L20.75 30L12 21L20.75 12L22 14.5714Z" fill="#303030"/>
</svg>
