<svg width="104" height="16" viewBox="0 0 104 16" fill="none" xmlns="http://www.w3.org/2000/svg">
<path d="M90.8647 14.8518C90.7867 15.2962 91.2247 15.6436 91.6107 15.4454L96.0007 13.1872L100.39 15.4454C100.776 15.6436 101.214 15.2962 101.136 14.8528L100.306 10.1182L103.828 6.75894C104.158 6.44463 103.988 5.87007 103.546 5.80801L98.6477 5.11134L96.4637 0.780123C96.422 0.692327 96.3564 0.618149 96.2744 0.566208C96.1923 0.514267 96.0972 0.486694 96.0002 0.486694C95.9031 0.486694 95.808 0.514267 95.7259 0.566208C95.6439 0.618149 95.5783 0.692327 95.5367 0.780123L93.3527 5.11234L88.4547 5.80901C88.0137 5.87107 87.8427 6.44563 88.1717 6.75994L91.6947 10.1192L90.8647 14.8538V14.8518ZM95.7697 12.0821L92.0837 13.978L92.7777 10.0171C92.7939 9.92593 92.7876 9.83215 92.7591 9.74401C92.7307 9.65588 92.6811 9.57607 92.6147 9.51161L89.7087 6.73892L93.7607 6.16236C93.8446 6.14967 93.9241 6.11682 93.9926 6.06662C94.061 6.01641 94.1163 5.95034 94.1537 5.87408L95.9987 2.21252L97.8457 5.87408C97.883 5.95034 97.9383 6.01641 98.0067 6.06662C98.0752 6.11682 98.1547 6.14967 98.2387 6.16236L102.291 6.73792L99.3847 9.51061C99.3181 9.57517 99.2684 9.65514 99.2399 9.74347C99.2115 9.8318 99.2052 9.92578 99.2217 10.0171L99.9157 13.978L96.2297 12.0821C96.1584 12.0453 96.0793 12.0261 95.9992 12.0261C95.919 12.0261 95.8399 12.0453 95.7687 12.0821H95.7697Z" fill="#E8A87C"/>
<path d="M3.61065 15.4447C3.22465 15.6429 2.78665 15.2956 2.86465 14.8522L3.69465 10.1176L0.171653 6.75829C-0.157347 6.44399 0.0136534 5.86943 0.454653 5.80737L5.35265 5.11069L7.53665 0.779479C7.73365 0.389099 8.26665 0.389099 8.46365 0.779479L10.6477 5.11069L15.5457 5.80737C15.9867 5.86943 16.1577 6.44399 15.8277 6.75829L12.3057 10.1176L13.1357 14.8522C13.2137 15.2956 12.7757 15.6429 12.3897 15.4447L7.99865 13.1865L3.60965 15.4447H3.61065Z" fill="#E8A87C"/>
<path d="M25.6107 15.4447C25.2247 15.6429 24.7867 15.2956 24.8647 14.8522L25.6947 10.1176L22.1717 6.75829C21.8427 6.44399 22.0137 5.86943 22.4547 5.80737L27.3527 5.11069L29.5367 0.779479C29.7337 0.389099 30.2667 0.389099 30.4637 0.779479L32.6477 5.11069L37.5457 5.80737C37.9867 5.86943 38.1577 6.44399 37.8277 6.75829L34.3057 10.1176L35.1357 14.8522C35.2137 15.2956 34.7757 15.6429 34.3897 15.4447L29.9987 13.1865L25.6097 15.4447H25.6107Z" fill="#E8A87C"/>
<path d="M47.6107 15.4447C47.2247 15.6429 46.7867 15.2956 46.8647 14.8522L47.6947 10.1176L44.1717 6.75829C43.8427 6.44399 44.0137 5.86943 44.4547 5.80737L49.3527 5.11069L51.5367 0.779479C51.7337 0.389099 52.2667 0.389099 52.4637 0.779479L54.6477 5.11069L59.5457 5.80737C59.9867 5.86943 60.1577 6.44399 59.8277 6.75829L56.3057 10.1176L57.1357 14.8522C57.2137 15.2956 56.7757 15.6429 56.3897 15.4447L51.9987 13.1865L47.6097 15.4447H47.6107Z" fill="#E8A87C"/>
<path d="M71.353 5.11019L73.537 0.778979C73.579 0.691847 73.6445 0.618256 73.7262 0.566582C73.8079 0.514908 73.9024 0.487228 73.999 0.486694C74.182 0.486694 74.365 0.583789 74.464 0.778979L76.648 5.11019L81.546 5.80687C81.6681 5.82608 81.7798 5.88686 81.8624 5.97894C81.9449 6.07103 81.9931 6.18879 81.999 6.31236C82.006 6.39463 81.9943 6.47741 81.9649 6.55453C81.9355 6.63166 81.889 6.70114 81.829 6.75779L78.306 10.1171L79.136 14.8517C79.214 15.2951 78.776 15.6424 78.39 15.4442L73.999 13.186L69.61 15.4442C69.5641 15.4681 69.5149 15.485 69.464 15.4943C69.122 15.5543 68.796 15.24 68.864 14.8517L69.694 10.1171L66.172 6.75779C66.1173 6.70594 66.0737 6.64338 66.0441 6.57398C66.0146 6.50459 65.9995 6.42985 66 6.3544C66.0001 6.24773 66.0295 6.14314 66.085 6.05211C66.1244 5.98611 66.1781 5.92981 66.2421 5.88737C66.3062 5.84492 66.3789 5.81741 66.455 5.80687L71.353 5.11019ZM73.999 12.0249C74.0797 12.0246 74.1593 12.0438 74.231 12.081L77.917 13.9768L77.223 10.016C77.2066 9.92487 77.2128 9.83114 77.2411 9.74301C77.2693 9.65487 77.3187 9.57503 77.385 9.51047L80.292 6.73777L76.24 6.16121C76.1561 6.14853 76.0765 6.11568 76.0081 6.06547C75.9396 6.01526 75.8844 5.9492 75.847 5.87293L74 2.21137L73.999 2.21437V12.0239V12.0249Z" fill="#E8A87C"/>
</svg>
